<?xml version="1.0" standalone="no"?>
<!DOCTYPE svg PUBLIC "-//W3C//DTD SVG 20010904//EN"
 "http://www.w3.org/TR/2001/REC-SVG-20010904/DTD/svg10.dtd">
<svg version="1.0" xmlns="http://www.w3.org/2000/svg"
 width="512.000000pt" height="512.000000pt" viewBox="0 0 512.000000 512.000000"
 preserveAspectRatio="xMidYMid meet">

<g transform="translate(0.000000,512.000000) scale(0.100000,-0.100000)"
fill="#000000" stroke="none">
<path d="M0 5035 l0 -85 1235 0 1235 0 0 -55 c0 -40 -4 -55 -14 -55 -25 0
-113 -89 -131 -132 -46 -112 -7 -241 93 -308 51 -33 52 -35 52 -82 l0 -48 -45
0 c-60 0 -100 -22 -114 -61 -6 -18 -11 -88 -11 -155 l0 -124 -124 0 c-186 0
-206 -12 -216 -130 l-5 -64 -358 -81 c-274 -61 -361 -85 -376 -100 -27 -28
-451 -966 -451 -997 0 -16 87 -164 225 -385 245 -393 251 -400 316 -372 56 23
59 41 59 421 l0 343 71 215 c39 118 75 219 80 224 4 5 128 60 275 122 l267
114 496 0 496 0 274 -157 274 -158 73 -185 74 -184 0 -339 c0 -374 3 -393 59
-416 65 -28 71 -21 316 372 138 221 225 369 225 385 0 33 -426 971 -453 999
-18 18 -90 37 -377 101 l-355 79 -5 64 c-10 117 -31 129 -216 129 l-124 0 0
124 c0 67 -5 137 -11 155 -14 39 -54 61 -114 61 l-45 0 0 48 c0 47 1 49 52 82
104 70 142 204 89 313 -23 48 -103 127 -127 127 -10 0 -14 15 -14 55 l0 55
1235 0 1235 0 0 85 0 85 -2560 0 -2560 0 0 -85z m2617 -367 c30 -28 32 -89 3
-118 -60 -60 -154 -10 -141 75 9 60 92 86 138 43z m31 -655 l3 -83 -91 0 -90
0 0 78 c0 43 3 82 7 86 4 4 43 5 88 4 l80 -3 3 -82z m340 -430 l-3 -168 -425
0 -425 0 -3 168 -2 167 430 0 430 0 -2 -167z m-1028 -111 l0 -89 -277 -118
c-152 -65 -284 -126 -294 -136 -9 -9 -56 -135 -105 -280 l-89 -264 -5 -198 -5
-197 -118 188 -117 189 195 429 195 429 298 67 c163 36 303 67 310 67 9 1 12
-23 12 -87z m1527 17 l293 -64 195 -429 195 -429 -117 -189 -118 -188 -5 197
-6 198 -88 220 c-49 121 -95 227 -102 236 -8 8 -140 87 -294 175 l-279 159 -1
94 c0 84 2 93 18 89 9 -2 149 -33 309 -69z"/>
<path d="M0 4695 l0 -85 85 0 85 0 0 85 0 85 -85 0 -85 0 0 -85z"/>
<path d="M340 4695 l0 -85 895 0 895 0 0 85 0 85 -895 0 -895 0 0 -85z"/>
<path d="M2990 4695 l0 -85 895 0 895 0 0 85 0 85 -895 0 -895 0 0 -85z"/>
<path d="M4950 4695 l0 -85 85 0 85 0 0 85 0 85 -85 0 -85 0 0 -85z"/>
<path d="M2333 3046 c-27 -24 -28 -27 -33 -151 l-5 -127 -31 -13 c-31 -13 -32
-13 -100 57 -87 88 -125 112 -162 103 -19 -4 -76 -54 -170 -149 -180 -181
-178 -172 -53 -300 l89 -91 -19 -37 -19 -38 -123 0 c-175 0 -167 12 -167 -247
0 -111 3 -209 6 -218 13 -33 59 -45 177 -45 112 0 114 0 125 -25 7 -14 12 -31
12 -37 0 -6 -36 -48 -80 -94 -43 -45 -82 -95 -86 -110 -11 -43 18 -82 156
-219 166 -162 165 -162 290 -39 l88 86 36 -12 36 -12 0 -107 c0 -132 11 -168
56 -187 42 -18 355 -20 404 -3 47 17 60 57 60 188 l0 109 36 12 36 12 88 -86
c123 -121 125 -121 276 27 131 128 174 180 174 215 0 17 -25 51 -85 111 -47
48 -85 95 -85 104 0 9 5 28 12 42 11 25 13 25 125 25 118 0 164 12 177 45 3 9
6 108 6 219 0 258 8 246 -168 246 l-122 0 -19 38 -19 37 89 91 c125 128 127
120 -53 301 -106 106 -151 144 -175 149 -28 6 -39 -1 -130 -83 -96 -88 -99
-89 -128 -77 l-30 12 -5 127 c-5 124 -6 127 -33 151 -28 24 -31 24 -227 24
-196 0 -199 0 -227 -24z m317 -261 c0 -127 9 -147 67 -161 16 -4 63 -22 105
-42 57 -25 84 -33 104 -28 15 4 62 41 104 81 l76 75 59 -60 59 -60 -76 -78
c-42 -42 -80 -89 -83 -103 -5 -19 2 -44 23 -85 16 -33 37 -83 46 -112 24 -71
47 -82 176 -82 l100 0 0 -85 0 -85 -109 0 c-126 0 -149 -11 -170 -82 -7 -23
-27 -71 -43 -106 -21 -45 -28 -71 -23 -89 3 -15 40 -61 80 -103 l75 -76 -60
-59 -60 -59 -78 75 c-42 42 -85 79 -95 82 -10 4 -56 -10 -111 -33 -51 -22
-100 -40 -108 -40 -8 0 -24 -10 -36 -23 -19 -20 -22 -36 -24 -137 l-3 -115
-85 0 -85 0 -3 115 c-3 127 -9 141 -71 161 -20 7 -70 27 -113 45 -45 20 -84
31 -95 28 -10 -4 -53 -41 -95 -83 l-78 -75 -60 59 -60 59 75 76 c40 42 77 88
80 103 5 18 -2 44 -23 89 -16 35 -36 83 -43 106 -21 71 -44 82 -170 82 l-109
0 0 85 0 85 100 0 c129 0 152 11 176 82 9 29 30 79 46 112 21 41 28 66 23 85
-3 14 -41 61 -83 103 l-76 78 59 60 59 60 76 -75 c42 -40 89 -77 104 -81 20
-5 47 3 104 28 42 20 89 38 105 42 58 14 67 34 67 161 l0 115 90 0 90 0 0
-115z"/>
<path d="M2433 2456 c-197 -64 -328 -275 -293 -474 58 -337 454 -475 708 -247
63 57 117 159 132 248 29 182 -68 366 -237 449 -60 29 -77 33 -167 35 -65 2
-116 -2 -143 -11z m232 -175 c133 -62 188 -228 118 -353 -59 -104 -166 -154
-278 -129 -200 45 -267 298 -116 434 24 22 57 45 75 53 46 20 153 17 201 -5z"/>
<path d="M325 1363 c-11 -3 -30 -14 -42 -26 -23 -20 -23 -24 -23 -267 l0 -246
-65 -43 c-231 -151 -260 -471 -60 -660 60 -57 128 -94 203 -110 75 -16 4369
-16 4444 0 162 35 296 172 328 337 33 168 -39 338 -185 433 l-65 43 0 246 0
247 -26 24 c-26 24 -26 24 -294 27 -295 3 -331 -2 -350 -53 -6 -15 -10 -125
-10 -246 l0 -219 -1620 0 -1620 0 0 219 c0 121 -4 231 -10 246 -19 49 -54 55
-332 54 -139 -1 -262 -3 -273 -6z m445 -343 l0 -170 -170 0 -170 0 0 170 0
170 170 0 170 0 0 -170z m3920 0 l0 -170 -170 0 -170 0 0 170 0 170 170 0 170
0 0 -170z m91 -354 c56 -20 103 -61 135 -118 24 -45 29 -64 29 -123 -1 -101
-48 -179 -140 -228 l-40 -22 -2205 0 -2205 0 -40 22 c-141 76 -185 243 -99
373 28 42 86 86 130 100 16 4 1012 8 2214 9 1754 0 2192 -2 2221 -13z"/>
<path d="M430 425 l0 -85 85 0 85 0 0 85 0 85 -85 0 -85 0 0 -85z"/>
<path d="M940 425 l0 -85 85 0 85 0 0 85 0 85 -85 0 -85 0 0 -85z"/>
<path d="M1450 425 l0 -85 85 0 85 0 0 85 0 85 -85 0 -85 0 0 -85z"/>
<path d="M1960 425 l0 -85 85 0 85 0 0 85 0 85 -85 0 -85 0 0 -85z"/>
<path d="M2472 428 l3 -83 85 0 85 0 3 83 3 82 -91 0 -91 0 3 -82z"/>
<path d="M2990 425 l0 -85 85 0 85 0 0 85 0 85 -85 0 -85 0 0 -85z"/>
<path d="M3500 425 l0 -85 85 0 85 0 0 85 0 85 -85 0 -85 0 0 -85z"/>
<path d="M4010 425 l0 -85 85 0 85 0 0 85 0 85 -85 0 -85 0 0 -85z"/>
<path d="M4520 425 l0 -85 85 0 85 0 0 85 0 85 -85 0 -85 0 0 -85z"/>
</g>
</svg>
