<?xml version="1.0" standalone="no"?>
<!DOCTYPE svg PUBLIC "-//W3C//DTD SVG 20010904//EN"
 "http://www.w3.org/TR/2001/REC-SVG-20010904/DTD/svg10.dtd">
<svg version="1.0" xmlns="http://www.w3.org/2000/svg"
 width="512.000000pt" height="512.000000pt" viewBox="0 0 512.000000 512.000000"
 preserveAspectRatio="xMidYMid meet">

<g transform="translate(0.000000,512.000000) scale(0.100000,-0.100000)"
fill="#000000" stroke="none">
<path d="M3250 4899 c-62 -25 -106 -95 -116 -183 l-7 -56 -1086 0 -1086 0 -55
-26 c-68 -31 -124 -84 -158 -149 -24 -46 -27 -62 -30 -187 l-4 -137 -207 -3
-207 -3 -66 -33 c-84 -41 -167 -128 -200 -209 l-23 -58 -3 -1405 c-2 -1375 -2
-1406 17 -1470 40 -131 139 -230 269 -270 52 -16 93 -20 223 -20 l159 0 0
-145 c0 -124 3 -151 19 -183 48 -92 143 -145 261 -145 86 0 143 20 204 73 68
60 79 96 84 258 l4 142 1079 0 1078 0 11 -42 c5 -24 27 -77 47 -118 86 -173
261 -280 458 -280 147 0 253 41 358 140 71 66 121 150 148 245 l16 60 194 5
c185 5 197 6 252 32 113 53 203 171 227 298 6 34 10 537 10 1400 0 863 -4
1366 -10 1400 -24 129 -105 237 -219 293 -63 31 -70 32 -212 35 l-147 4 -4
136 c-3 125 -6 141 -30 187 -34 65 -90 118 -158 149 -54 25 -60 26 -281 26
l-226 0 -6 56 c-7 69 -33 119 -81 158 l-38 31 -216 2 c-131 1 -227 -2 -242 -8z
m418 -151 c7 -7 12 -29 12 -50 l0 -38 -200 0 -200 0 0 34 c0 68 -7 66 194 66
128 0 186 -4 194 -12z m593 -238 c49 -14 85 -44 109 -91 16 -31 20 -58 20
-148 l0 -111 -1765 0 -1765 0 0 110 c0 120 10 159 53 198 57 53 -20 51 1707
51 1043 1 1618 -3 1641 -9z m-1151 -1755 c0 -905 3 -1271 11 -1288 6 -14 22
-30 36 -36 17 -8 284 -11 918 -11 l895 0 0 -187 c0 -176 -2 -191 -24 -239 -27
-59 -90 -116 -145 -132 -22 -7 -107 -12 -203 -12 l-165 0 -18 65 c-30 112
-117 226 -223 293 -155 99 -375 102 -538 6 -120 -70 -208 -190 -244 -332 l-11
-42 -1522 0 -1522 1 -50 23 c-56 25 -106 71 -133 120 -16 29 -17 128 -20 1421
-1 765 0 1404 3 1421 8 45 61 120 102 145 81 50 19 48 1481 49 l1372 0 0
-1265z m1686 1250 c65 -19 116 -63 148 -127 l26 -52 0 -1128 0 -1128 -855 0
-855 0 0 1225 0 1225 743 0 c625 0 751 -2 793 -15z m-719 -2899 c73 -33 153
-112 186 -183 18 -40 22 -66 22 -153 0 -95 -3 -110 -28 -160 -38 -73 -99 -135
-172 -173 -56 -30 -66 -32 -165 -32 -94 0 -111 3 -160 27 -31 15 -76 48 -102
73 -206 207 -122 533 162 626 14 5 63 7 110 6 69 -2 97 -8 147 -31z m-2987
-531 c0 -133 -13 -175 -59 -199 -35 -19 -113 -21 -144 -5 -12 6 -32 21 -44 32
-22 19 -23 28 -23 154 l0 133 135 0 135 0 0 -115z"/>
<path d="M1697 3848 c-24 -19 -36 -59 -25 -87 18 -50 22 -50 354 -51 300 0
312 1 338 21 34 27 36 77 3 107 -23 22 -29 22 -338 22 -237 0 -319 -3 -332
-12z"/>
<path d="M845 3627 c-132 -44 -237 -149 -275 -276 -20 -65 -21 -87 -18 -856
l3 -790 32 -67 c92 -194 301 -290 501 -229 114 34 206 115 261 231 l26 55 0
820 0 820 -33 68 c-43 87 -117 161 -201 201 -57 26 -79 31 -161 33 -59 2 -110
-2 -135 -10z m243 -163 c58 -29 96 -69 126 -134 21 -44 21 -55 21 -820 0 -769
0 -775 -21 -821 -44 -96 -126 -150 -235 -157 -52 -3 -76 1 -118 18 -62 27
-132 101 -149 158 -17 56 -17 1554 0 1603 39 114 130 177 259 178 51 1 76 -5
117 -25z"/>
<path d="M1697 3538 c-26 -21 -37 -61 -23 -89 23 -47 40 -49 367 -47 286 3
308 4 328 22 27 25 28 79 1 106 -19 19 -33 20 -338 20 -239 0 -322 -3 -335
-12z"/>
<path d="M2089 3016 c-246 -66 -348 -358 -199 -565 124 -170 376 -194 533 -51
212 193 126 543 -150 615 -68 18 -121 18 -184 1z m152 -137 c46 -16 97 -55
120 -93 10 -17 19 -34 19 -38 0 -5 -54 -8 -119 -8 -117 0 -120 -1 -140 -26
-27 -35 -26 -57 3 -91 23 -27 28 -28 140 -33 l116 -5 -25 -37 c-61 -90 -186
-119 -279 -64 -152 89 -142 308 18 382 56 26 96 30 147 13z"/>
<path d="M2111 2120 c-109 -23 -203 -96 -253 -198 -30 -61 -33 -74 -33 -162 0
-89 2 -99 34 -158 41 -76 104 -135 179 -170 48 -22 71 -27 142 -26 110 0 186
32 260 110 77 82 95 128 95 249 0 91 -3 105 -30 158 -72 143 -242 228 -394
197z m134 -151 c57 -16 128 -92 144 -152 23 -95 -23 -199 -109 -245 -98 -52
-237 -8 -288 89 -88 172 65 359 253 308z"/>
<path d="M526 1159 c-33 -26 -36 -79 -6 -109 20 -20 33 -20 1073 -20 l1054 0
21 23 c31 33 29 80 -4 106 -27 21 -30 21 -1069 21 -1039 0 -1042 0 -1069 -21z"/>
<path d="M4128 3763 c-14 -16 -489 -877 -547 -990 -26 -53 -27 -77 -1 -103 18
-18 33 -20 176 -20 144 0 156 -1 150 -17 -4 -10 -79 -193 -168 -408 -88 -214
-164 -402 -168 -416 -17 -58 34 -112 89 -94 16 5 807 935 1044 1228 54 66 60
101 24 135 -22 21 -33 22 -181 22 -136 0 -157 2 -152 15 3 8 75 136 161 285
85 148 158 282 161 298 4 19 -1 35 -16 55 l-21 27 -268 0 c-243 0 -269 -2
-283 -17z m382 -134 c0 -6 -68 -128 -151 -271 -83 -143 -157 -275 -165 -293
-15 -36 -7 -75 18 -92 7 -4 79 -10 159 -13 l147 -5 -311 -373 c-171 -204 -312
-371 -313 -369 -2 2 42 112 96 244 55 133 100 249 100 257 0 61 -40 76 -200
76 -71 0 -130 3 -130 6 0 7 439 814 453 832 13 16 297 17 297 1z"/>
</g>
</svg>
